<?xml version="1.0" encoding="utf-8"?>
<!-- Generator: Adobe Illustrator 27.0.0, SVG Export Plug-In . SVG Version: 6.00 Build 0)  -->
<svg version="1.1" id="Слой_1" xmlns="http://www.w3.org/2000/svg" xmlns:xlink="http://www.w3.org/1999/xlink" x="0px" y="0px"
	 viewBox="0 0 512 512" style="enable-background:new 0 0 512 512;" xml:space="preserve">
<style type="text/css">
	.st0{fill:#FFFFFF;}
	.st1{fill:none;stroke:#FFFFFF;stroke-width:18;stroke-miterlimit:10;}
	.st2{fill:#AF0254;}
	.st3{fill-rule:evenodd;clip-rule:evenodd;fill:#AF0254;}
</style>
<g>
	<g>
		<path class="st0" d="M83.2-105.4L55-77.4C44.8-67.2,31.4-61.5,17.9-61.5c-1.1,0-2,0-3-0.2c-134.5-8.2-242.2-115.9-250.4-250.4
			c-0.9-14.6,4.8-29.3,15.7-40.1l28-28.2c11.8-11.6,28-17.1,44.4-15.2c16.4,2,30.9,11.2,39.4,25.5l22.8,38.2
			c8.4,13.9,6.2,31.9-5.5,43.5l-25.3,25.5c19.6,33.4,48,61.7,81.7,81.7l25.5-25.3c11.6-11.8,29.6-13.9,43.5-5.5l38.2,22.8
			c14.3,8.6,23.5,23,25.5,39.4C100.5-133.4,94.7-117.2,83.2-105.4L83.2-105.4z"/>
	</g>
	<path class="st1" d="M-184.1-53.1c-55.6-22.9-102.1-67.6-125.6-128.1c-45.5-117.1,12.5-249,129.7-294.5S69-463.2,114.5-346
		c33.1,85.1,11.5,177.9-47.7,239.8"/>
</g>
<g>
	<path class="st2" d="M-198.2,429.8l-38.3,38.1c-13.8,13.8-32,21.6-50.5,21.6c-1.5,0-2.7,0-4.1-0.2
		c-183-11.2-329.5-157.7-340.7-340.7c-1.2-19.9,6.6-39.8,21.4-54.6l38.1-38.3c16-15.8,38.1-23.3,60.4-20.6
		c22.3,2.7,42,15.3,53.6,34.7l31.1,51.9c11.4,18.9,8.5,43.4-7.5,59.2l-34.5,34.7c26.7,45.4,65.3,84,111.1,111.1l34.7-34.5
		c15.8-16,40.3-18.9,59.2-7.5l51.9,31.1c19.4,11.6,32,31.3,34.7,53.6C-174.7,391.7-182.5,413.8-198.2,429.8L-198.2,429.8z"/>
</g>
<g>
	<path class="st3" d="M365.4,272L484,390.6c6.5,6.5,9.9,15.1,10,23.9v0.1c0,18.8-15.2,34-34,34c-94.8,0-313.2,0-408,0
		c-18.8,0-34-15.2-34-34v-0.1c0-8.8,3.5-17.5,10-23.9L146.6,272l69.4,69.4c22.1,22.1,58,22.1,80.1,0L365.4,272z"/>
	<path class="st3" d="M381.5,256L494,368.5V143.5L381.5,256z"/>
	<path class="st3" d="M18,368.5L130.5,256L18,143.5L18,368.5z"/>
	<path class="st3" d="M494,97.4c0,8.8-3.5,17.5-10,23.9l-204,204c-13.3,13.3-34.8,13.3-48.1,0l-204-204c-6.5-6.5-9.9-15.1-10-23.9
		v-0.1c0-18.8,15.2-34,34-34h408c18.8,0,34,15.2,34,34C494,97.3,494,97.4,494,97.4z"/>
</g>
</svg>
