<?xml version="1.0" encoding="utf-8"?>
<!-- Generator: Adobe Illustrator 27.0.0, SVG Export Plug-In . SVG Version: 6.00 Build 0)  -->
<svg version="1.1" id="Слой_1" xmlns="http://www.w3.org/2000/svg" xmlns:xlink="http://www.w3.org/1999/xlink" x="0px" y="0px"
	 viewBox="0 0 512 512" style="enable-background:new 0 0 512 512;" xml:space="preserve">
<style type="text/css">
	.st0{fill:#FFFFFF;}
	.st1{fill:none;stroke:#FFFFFF;stroke-width:18;stroke-miterlimit:10;}
	.st2{fill:#AF0254;}
	.st3{fill-rule:evenodd;clip-rule:evenodd;fill:#AF0254;}
	.st4{fill-rule:evenodd;clip-rule:evenodd;}
	.st5{fill-rule:evenodd;clip-rule:evenodd;fill:#FFFFFF;}
</style>
<g>
	<g>
		<path class="st0" d="M83.2-105.4L55-77.4C44.8-67.2,31.4-61.5,17.9-61.5c-1.1,0-2,0-3-0.2c-134.5-8.2-242.2-115.9-250.4-250.4
			c-0.9-14.6,4.8-29.3,15.7-40.1l28-28.2c11.8-11.6,28-17.1,44.4-15.2c16.4,2,30.9,11.2,39.4,25.5l22.8,38.2
			c8.4,13.9,6.2,31.9-5.5,43.5l-25.3,25.5c19.6,33.4,48,61.7,81.7,81.7l25.5-25.3c11.6-11.8,29.6-13.9,43.5-5.5l38.2,22.8
			c14.3,8.6,23.5,23,25.5,39.4C100.5-133.4,94.7-117.2,83.2-105.4L83.2-105.4z"/>
	</g>
	<path class="st1" d="M-184.1-53.1c-55.6-22.9-102.1-67.6-125.6-128.1c-45.5-117.1,12.5-249,129.7-294.5S69-463.2,114.5-346
		c33.1,85.1,11.5,177.9-47.7,239.8"/>
</g>
<g>
	<path class="st2" d="M-198.2,429.8l-38.3,38.1c-13.8,13.8-32,21.6-50.5,21.6c-1.5,0-2.7,0-4.1-0.2
		c-183-11.2-329.5-157.7-340.7-340.7c-1.2-19.9,6.6-39.8,21.4-54.6l38.1-38.3c16-15.8,38.1-23.3,60.4-20.6
		c22.3,2.7,42,15.3,53.6,34.7l31.1,51.9c11.4,18.9,8.5,43.4-7.5,59.2l-34.5,34.7c26.7,45.4,65.3,84,111.1,111.1l34.7-34.5
		c15.8-16,40.3-18.9,59.2-7.5l51.9,31.1c19.4,11.6,32,31.3,34.7,53.6C-174.7,391.7-182.5,413.8-198.2,429.8L-198.2,429.8z"/>
</g>
<g>
	<path class="st3" d="M1112.4,71L1231,189.6c6.5,6.5,9.9,15.1,10,23.9v0.1c0,18.8-15.2,34-34,34c-94.8,0-313.2,0-408,0
		c-18.8,0-34-15.2-34-34v-0.1c0-8.8,3.5-17.5,10-23.9L893.6,71l69.4,69.4c22.1,22.1,58,22.1,80.1,0L1112.4,71z"/>
	<path class="st3" d="M1128.5,55L1241,167.5v-225L1128.5,55z"/>
	<path class="st3" d="M765,167.5L877.5,55L765-57.5V167.5z"/>
	<path class="st3" d="M1241-103.6c0,8.8-3.5,17.5-10,23.9l-204,204c-13.3,13.3-34.8,13.3-48.1,0l-204-204c-6.5-6.5-9.9-15.1-10-23.9
		v-0.1c0-18.8,15.2-34,34-34h408c18.8,0,34,15.2,34,34C1241-103.7,1241-103.6,1241-103.6z"/>
</g>
<path id="path5916" class="st4" d="M676.3,908.3V499.7c0-23.6,19.1-42.7,42.7-42.7h235.9v84.6c0,21.1,17.1,38.2,38.2,38.2h84.6
	v328.5c0,23.6-19.1,42.7-42.7,42.7H719C695.5,951,676.3,931.9,676.3,908.3z M1015.9,858.3v-30.8H738.1v30.8H1015.9z M1015.9,796.6
	v-30.8H738.1v30.8H1015.9z M1016,734.8v-30.8H738.1v30.8H1016z M1015.9,673.1v-30.8H738.1v30.8H1015.9z M985.8,522.9l0-65.2
	l91.3,91.2h-65.2C997.5,548.9,985.8,537.2,985.8,522.9z"/>
<rect x="724" y="615" class="st4" width="305" height="281"/>
<path class="st5" d="M1003.6,685.8H754.4c-8.5,0-15.4-6.9-15.4-15.4l0,0c0-8.5,6.9-15.4,15.4-15.4h249.2c8.5,0,15.4,6.9,15.4,15.4
	l0,0C1019,678.9,1012.1,685.8,1003.6,685.8z"/>
<path class="st5" d="M1003.6,765.3H754.4c-8.5,0-15.4-6.9-15.4-15.4l0,0c0-8.5,6.9-15.4,15.4-15.4h249.2c8.5,0,15.4,6.9,15.4,15.4
	l0,0C1019,758.4,1012.1,765.3,1003.6,765.3z"/>
<path class="st5" d="M1003.6,844.9H754.4c-8.5,0-15.4-6.9-15.4-15.4l0,0c0-8.5,6.9-15.4,15.4-15.4h249.2c8.5,0,15.4,6.9,15.4,15.4
	l0,0C1019,838,1012.1,844.9,1003.6,844.9z"/>
<path id="path5916_00000003809430066028312550000013423315027769881494_" class="st4" d="M55.3,503V9h261.1
	c9.6,0,17.5,7.8,17.5,17.5v51.7c0,29.6,24,53.6,53.6,53.6h53.8c8.5,0,15.4,6.9,15.4,15.4V503H55.3z M394.9,333.2L394.9,333.2
	c0-8.5-6.9-15.4-15.4-15.4h-247c-8.5,0-15.4,6.9-15.4,15.4v0c0,8.5,6.9,15.4,15.4,15.4h247C388,348.6,394.9,341.7,394.9,333.2z
	 M395,271.4L395,271.4c0-8.5-6.9-15.4-15.4-15.4h-247c-8.5,0-15.4,6.9-15.4,15.4v0c0,8.5,6.9,15.4,15.4,15.4h247
	C388.1,286.8,395,279.9,395,271.4z M394.9,209.6L394.9,209.6c0-8.5-6.9-15.4-15.4-15.4h-247c-8.5,0-15.4,6.9-15.4,15.4v0
	c0,8.5,6.9,15.4,15.4,15.4h247C388,225.1,394.9,218.2,394.9,209.6z M364.8,74.9l0-28c0-13.7,16.6-20.6,26.3-10.9l38.6,38.6
	c9.7,9.7,2.8,26.3-10.9,26.3h-28C376.5,100.9,364.8,89.2,364.8,74.9z"/>
<rect x="-378" y="-52" class="st4" width="305" height="281"/>
<path class="st5" d="M816.6,197.8H567.4c-8.5,0-15.4-6.9-15.4-15.4v0c0-8.5,6.9-15.4,15.4-15.4h249.2c8.5,0,15.4,6.9,15.4,15.4v0
	C832,190.9,825.1,197.8,816.6,197.8z"/>
<path class="st5" d="M844.6,359.3H595.4c-8.5,0-15.4-6.9-15.4-15.4v0c0-8.5,6.9-15.4,15.4-15.4h249.2c8.5,0,15.4,6.9,15.4,15.4v0
	C860,352.4,853.1,359.3,844.6,359.3z"/>
<path class="st5" d="M2.6,625.4h-249.2c-8.5,0-15.4-6.9-15.4-15.4l0,0c0-8.5,6.9-15.4,15.4-15.4H2.6c8.5,0,15.4,6.9,15.4,15.4l0,0
	C18,618.5,11.1,625.4,2.6,625.4z"/>
</svg>
